<svg viewBox="0 0 100 100.04" xmlns="http://www.w3.org/2000/svg"><path d="m43.39 72a19.33 19.33 0 0 0 15.78 2.32c-.17.19-.28.32-.41.45q-8.76 8.76-17.43 17.47a25.84 25.84 0 0 1 -14.71 7.53 22.81 22.81 0 0 1 -26.09-18c-1.69-8.47.69-15.93 6.47-22.22 3.82-4.15 7.94-8 11.94-12 3-3 6-6.17 9.15-9.08a25.12 25.12 0 0 1 19.32-6.95 22 22 0 0 1 14.47 6.6 6.35 6.35 0 0 1 -4.28 10.82 5.62 5.62 0 0 1 -4.4-1.62c-4.32-4.42-11.2-4.08-15.76-.32-1.73 1.43-3.25 3.11-4.84 4.71q-7.87 7.88-15.71 15.79a14 14 0 0 0 -4.14 7.82 10.43 10.43 0 0 0 9.13 12 12.19 12.19 0 0 0 10-3.62c3.62-3.46 7.11-7 10.65-10.59.29-.35.58-.74.86-1.11z"/><path d="m56.55 27.84c-5-2.76-10.1-3.78-15.58-2.33 0 0 0 0 .07-.09s.14-.15.21-.23q8.75-8.72 17.44-17.43a26 26 0 0 1 13.31-7.25c13.15-2.69 25.39 5.55 27.61 18.49a24.3 24.3 0 0 1 -6.16 21c-3.06 3.46-6.49 6.6-9.76 9.87q-5.56 5.51-11.15 11.03a25.4 25.4 0 0 1 -14.62 7.45 22.57 22.57 0 0 1 -19.73-6.35 6.34 6.34 0 0 1 3.29-10.8 6.11 6.11 0 0 1 5.57 1.73 9.9 9.9 0 0 0 4.38 2.56 12.11 12.11 0 0 0 12-3.29c4.76-4.62 9.38-9.38 14.06-14.09l5.73-5.77a13.45 13.45 0 0 0 4.09-8.34 10.39 10.39 0 0 0 -10.31-11.34 12.94 12.94 0 0 0 -9.32 4.07c-3.62 3.58-7.2 7.19-10.81 10.79-.12.15-.28.28-.32.32z"/></svg>