<svg xmlns="http://www.w3.org/2000/svg" xmlns:xlink="http://www.w3.org/1999/xlink" viewBox="0 0 19.3 6"><defs><linearGradient id="a" x1="-5.5" y1="3.35" x2="24.9" y2="3.35" gradientUnits="userSpaceOnUse"><stop offset="0.18" stop-color="#ee0979"/><stop offset="0.82" stop-color="#ff6a00"/></linearGradient></defs><title>wave</title><path d="M-5.5,3.8A8,8,0,0,0,0,6,8,8,0,0,0,5.5,3.8,5.51,5.51,0,0,1,9.7,2a5.68,5.68,0,0,1,4.2,1.8A8,8,0,0,0,19.4,6a8,8,0,0,0,5.5-2.2l-1.4-.9a5.51,5.51,0,0,1-4.2,1.8,5.68,5.68,0,0,1-4.2-1.8A7.76,7.76,0,0,0,9.7.7,8,8,0,0,0,4.2,2.9,5.68,5.68,0,0,1,0,4.7,5.68,5.68,0,0,1-4.2,2.9Z" fill="url(#a)"/></svg>